<?xml version="1.0" encoding="utf-8"?>
<!-- Generator: Adobe Illustrator 24.3.0, SVG Export Plug-In . SVG Version: 6.00 Build 0)  -->
<svg version="1.1" id="Layer_1" xmlns="http://www.w3.org/2000/svg" xmlns:xlink="http://www.w3.org/1999/xlink" x="0px" y="0px"
	 viewBox="0 0 750 500" style="enable-background:new 0 0 750 500;" xml:space="preserve">
<style type="text/css">
	.st0{fill-rule:evenodd;clip-rule:evenodd;fill:#FFFFFF;}
	.st1{fill-rule:evenodd;clip-rule:evenodd;fill:#1F844A;}
	.st2{fill-rule:evenodd;clip-rule:evenodd;fill:#4EB27D;}
	.st3{fill-rule:evenodd;clip-rule:evenodd;fill:#FCC000;}
	.st4{fill-rule:evenodd;clip-rule:evenodd;fill:#DBA305;}
	.st5{fill-rule:evenodd;clip-rule:evenodd;fill:#CE9902;}
	.st6{fill-rule:evenodd;clip-rule:evenodd;fill:#F45939;}
	.st7{fill-rule:evenodd;clip-rule:evenodd;fill:#515151;}
	.st8{fill-rule:evenodd;clip-rule:evenodd;fill:#2D2D2D;}
	.st9{fill-rule:evenodd;clip-rule:evenodd;fill:#C6E2E9;}
	.st10{fill-rule:evenodd;clip-rule:evenodd;fill:#777878;}
	.st11{fill-rule:evenodd;clip-rule:evenodd;fill:#DD9187;}
	.st12{fill-rule:evenodd;clip-rule:evenodd;fill:#7ACEE4;}
	.st13{fill-rule:evenodd;clip-rule:evenodd;fill:#41B8D8;}
	.st14{fill-rule:evenodd;clip-rule:evenodd;fill:#EABFB9;}
	.st15{fill-rule:evenodd;clip-rule:evenodd;fill:#D7766D;}
	.st16{fill-rule:evenodd;clip-rule:evenodd;fill:#F0D4D1;}
	.st17{fill-rule:evenodd;clip-rule:evenodd;fill:#D26070;}
	.st18{fill-rule:evenodd;clip-rule:evenodd;fill:#006A99;}
</style>
<g id="OBJECTS">
	<g>
		<g>
			<path class="st1" d="M575.1,377.7l6.3,7.9h28.7l6.3-7.9C639,316.6,552.4,316.6,575.1,377.7z"/>
			<path class="st2" d="M583.2,378.3l3.8,7.3h17.3l3.8-7.3C621.9,321.9,569.5,321.9,583.2,378.3z"/>
			<g>
				<path class="st3" d="M620.3,372.6h-49.2c-1.7,0-3.1,1.4-3.1,3.1v14c0,1.7,1.4,3.1,3.1,3.1h49.2c1.7,0,3.1-1.4,3.1-3.1v-14
					C623.4,374,622,372.6,620.3,372.6z"/>
				<polygon class="st3" points="612.1,384 579.3,384 570.7,392.9 577.7,423.6 595.7,423.6 613.7,423.6 620.7,392.9 				"/>
				<polygon class="st4" points="570.7,392.9 571.7,396.9 618.3,403.5 620.7,392.9 				"/>
			</g>
			<path class="st1" d="M611.5,340.7l-1.8,4.1l5.9,11.2l4.4,0.8C648.3,353.1,630.6,319.4,611.5,340.7z"/>
			<path class="st2" d="M621,351.5c19-6.7,11-18.5-6.8-10.5C599,347.9,605.2,357.1,621,351.5z"/>
			<path class="st1" d="M582.2,339.8l0.6,3.3l-6.3,7.1l-3.3-0.2C553,342.2,572.1,320.8,582.2,339.8z"/>
			<path class="st2" d="M573.7,349.1c-13.9-10.2-4.2-20.3,8.4-9C592.9,349.7,585.3,357.6,573.7,349.1z"/>
		</g>
		<g>
			<path class="st3" d="M149,376.6c3.3,0,6.3,1.3,8.6,3.6c2.3,2.3,3.6,5.4,3.6,8.6c0,3.3-1.3,6.3-3.6,8.6c-2.3,2.3-5.4,3.6-8.6,3.6
				c-3.3,0-6.3-1.3-8.6-3.6c-2.3-2.3-3.6-5.4-3.6-8.6c0-3.3,1.3-6.4,3.6-8.6C142.7,377.9,145.8,376.6,149,376.6L149,376.6z
				 M154.3,383.6c-1.4-1.4-3.3-2.2-5.3-2.2s-3.9,0.8-5.3,2.2c-1.4,1.4-2.2,3.3-2.2,5.3s0.8,3.9,2.2,5.3s3.3,2.2,5.3,2.2
				s3.9-0.8,5.3-2.2c1.4-1.4,2.2-3.3,2.2-5.3S155.7,385,154.3,383.6z"/>
			<path class="st3" d="M129.6,423.6L129.6,423.6c10.6,0,19.2-8.6,19.2-19.2v-1.1v-27.9V374c0-0.9-0.8-1.7-1.7-1.7h-35
				c-0.9,0-1.7,0.8-1.7,1.7v1.4v27.9v1.1C110.4,415,119,423.6,129.6,423.6z"/>
			<path class="st5" d="M142.2,402c0,2.1-0.3,4-0.9,5.9c-0.3,1-0.8,2.1-1.3,3c-2.1,3.9-5.5,7.1-9.6,8.8c-2.3,0.9-4.7,1.5-7.3,1.5
				c-1.1,0-2.1-0.1-3.1-0.3c2.9,1.7,6.2,2.7,9.7,2.7c4.3,0,8.3-1.4,11.5-3.9c2.1-1.6,3.9-3.6,5.2-5.9c0.5-0.9,1-1.9,1.4-2.9
				c0.7-2,1.2-4.3,1.2-6.6v-1.1v-21.5v-3.1v-3.4v-1.4c0-0.9-0.8-1.7-1.7-1.7h-4.9v0.7v7.3v3.7V401v1H142.2z"/>
			<path class="st5" d="M112.9,423.6h33.3c1.4,0,2.6-1.1,2.6-2.6l0,0c0-1.4-1.1-2.6-2.6-2.6h-33.3c-1.4,0-2.6,1.2-2.6,2.6l0,0
				C110.4,422.5,111.5,423.6,112.9,423.6z"/>
			<path class="st0" d="M116.5,376L116.5,376c1.8,0,3.2,1.5,3.2,3.2v21.9c0,1.8-1.5,3.2-3.2,3.2l0,0c-1.8,0-3.2-1.5-3.2-3.2v-21.9
				C113.3,377.5,114.7,376,116.5,376z"/>
		</g>
		<g>
			<path class="st0" d="M597.6,314.7c13.7,0,24.8-11.2,24.8-24.8c0-13.7-11.2-24.8-24.8-24.8c-13.7,0-24.8,11.2-24.8,24.8
				C572.8,303.6,583.9,314.7,597.6,314.7z"/>
			<path class="st6" d="M594,275.9h7.2c0.9,0,1.6,0.7,1.6,1.6v7.1h7.1c0.9,0,1.6,0.7,1.6,1.6v7.2c0,0.9-0.7,1.6-1.6,1.6h-7.1v7.1
				c0,0.9-0.7,1.6-1.6,1.6H594c-0.9,0-1.6-0.7-1.6-1.6V295h-7.1c-0.9,0-1.6-0.7-1.6-1.6v-7.2c0-0.9,0.7-1.6,1.6-1.6h7.1v-7.1
				C592.4,276.6,593.1,275.9,594,275.9z"/>
		</g>
		<g>
			<g>
				<path class="st7" d="M187.7,170.6h355.8c7.4,0,13.4,6,13.4,13.4v212.6c0,7.4-6,13.4-13.4,13.4H187.7c-7.4,0-13.4-6-13.4-13.4
					V184.1C174.3,176.7,180.3,170.6,187.7,170.6z"/>
				<path class="st8" d="M556.9,389.9v25.7c0,7.4-6,13.4-13.4,13.4H187.7c-7.4,0-13.4-6-13.4-13.4v-25.7H556.9z"/>
				<rect x="187" y="183.4" class="st0" width="357.2" height="193.9"/>
				<path class="st6" d="M544.2,252.9v3.3h-21.9c-0.4,0.1-1.7,0.4-2.2,2.1c-0.9,3-6.5,33.3-6.5,33.4v0.2c0,0-0.9,3.1-4.3,3.2l0,0
					l0,0c-3.4,0-4.3-3.1-4.3-3.2v-0.2c0-0.1-5.6-30.4-6.5-33.4c-0.5-1.8-2.1-2.1-2.3-2.1l0,0l0,0l0,0l0,0l0,0l0,0l0,0
					c-0.3,0-4-0.5-5.1-4.5c-0.8-3-6.1-31.5-6.5-33.6c-0.1-0.2-0.4-0.7-1.2-0.7c-0.8,0-1.1,0.6-1.2,0.7c-0.4,2.1-5.7,30.6-6.5,33.6
					c-1,3.6-4.2,4.3-5,4.5c-0.1,0-0.2,0-0.4,0h-24.8c-0.9,0-1.7-0.7-1.7-1.7s0.7-1.7,1.7-1.7h24.7c0.4-0.1,1.7-0.4,2.2-2.1
					c0.9-3,6.5-33.3,6.5-33.4v-0.2c0,0,0.9-3.1,4.3-3.2l0,0l0,0c3.4,0,4.3,3.1,4.3,3.2v0.2c0,0.1,5.6,30.4,6.5,33.4
					c0.5,1.8,2.1,2.1,2.3,2.1l0,0l0,0l0,0l0,0l0,0l0,0l0,0c0.3,0,4,0.5,5.1,4.5c0.8,3,6.1,31.5,6.5,33.6c0.1,0.2,0.4,0.7,1.2,0.7
					c0.8,0,1.1-0.6,1.2-0.7c0.4-2.1,5.7-30.6,6.5-33.6c1-3.6,4.2-4.3,5-4.5c0.1,0,0.2,0,0.3,0h22.1V252.9z M187,256.2v-3.3h17.9
					c0.4-0.1,1.7-0.4,2.2-2.1c0.9-3,6.5-33.3,6.5-33.4v-0.2c0,0,0.9-3.1,4.3-3.2l0,0l0,0c3.4,0,4.3,3.1,4.3,3.2v0.2
					c0,0.1,5.6,30.4,6.5,33.4c0.5,1.8,2.1,2.1,2.3,2.1l0,0l0,0l0,0l0,0l0,0l0,0l0,0c0.3,0,4,0.5,5.1,4.5c0.8,3,6.1,31.5,6.5,33.6
					c0.1,0.2,0.4,0.7,1.2,0.7s1.1-0.6,1.2-0.7c0.4-2.1,5.7-30.6,6.5-33.6c1-3.6,4.2-4.3,5-4.5c0.1,0,0.2,0,0.4,0h24.8
					c0.9,0,1.7,0.7,1.7,1.7s-0.7,1.7-1.7,1.7H257c-0.4,0.1-1.7,0.4-2.2,2.1c-0.9,3-6.5,33.3-6.5,33.4v0.2c0,0-0.9,3.1-4.3,3.2l0,0
					l0,0c-3.4,0-4.3-3.1-4.3-3.2v-0.2c0-0.1-5.6-30.4-6.5-33.4c-0.5-1.8-2.1-2.1-2.3-2.1l0,0l0,0l0,0l0,0l0,0l0,0l0,0
					c-0.3,0-4-0.5-5.1-4.5c-0.8-3-6.1-31.5-6.5-33.6c-0.1-0.2-0.4-0.7-1.2-0.7s-1.1,0.6-1.2,0.7c-0.4,2.1-5.7,30.6-6.5,33.6
					c-1,3.6-4.2,4.3-5,4.5c-0.1,0-0.2,0-0.4,0L187,256.2L187,256.2z"/>
				<rect x="187" y="320.5" class="st9" width="357.2" height="56.7"/>
				<path class="st7" d="M140.3,423.6h450.5c5.9,0,10.7-4.8,10.7-10.7v-3.8c0-3.8-3.1-6.9-6.9-6.9H136.5c-3.8,0-6.9,3.1-6.9,6.9v3.8
					C129.6,418.8,134.5,423.6,140.3,423.6z"/>
				<path class="st10" d="M158.4,406.7h265.9c1.8,0,3.2,1.4,3.2,3.2l0,0c0,1.8-1.4,3.2-3.2,3.2H158.4c-1.8,0-3.2-1.4-3.2-3.2l0,0
					C155.2,408.1,156.6,406.7,158.4,406.7z"/>
				<path class="st10" d="M138.5,406.7h8.6c1.8,0,3.2,1.4,3.2,3.2l0,0c0,1.8-1.4,3.2-3.2,3.2h-8.6c-1.8,0-3.2-1.4-3.2-3.2l0,0
					C135.3,408.1,136.7,406.7,138.5,406.7z"/>
			</g>
			<g>
				<path class="st11" d="M365.9,126.9L365.9,126.9c-10.8,0-19.6,15.1-19.6,33.5v27.2c0,18.4,8.8,33.5,19.6,33.5l0,0
					c10.8,0,19.6-15.1,19.6-33.5v-27.2C385.5,142,376.7,126.9,365.9,126.9z"/>
				<path class="st12" d="M372.2,196.9l15.5-12.2v-0.9c0,0,0-1,0.7-1.4l37.3,11.1c-9.7,43.5-1,72.3-1,72.3
					c-6.4,34.4-3.8,48.8-3.8,51c0,3.6,7.4,47.8,11.3,60.6h-66.7h-66.7c4-12.8,11.3-57,11.3-60.6c0-2.2,2.5-16.6-3.8-51
					c0,0,8.7-28.8-1-72.3l37.3-11.1c0.7,0.4,0.7,1.4,0.7,1.4v0.9L359,197C362.8,195.7,368.4,195.6,372.2,196.9z"/>
				<path class="st13" d="M370.1,377.3h-4.5h-4.5V196.7c2.6-0.9,6.2-1,9-0.2V377.3z"/>
				<g>
					<path class="st11" d="M331.2,123.5c-0.3,0-0.5,0.1-0.8,0.1l0,0l0,0c-4.6,1-8.2,5.1-8.2,10.1c-0.1,5.8,4.5,10.5,10.3,10.6
						s10.5-4.5,10.6-10.3c0-3.3-1.5-6.3-3.9-8.3c0.3,3.1-0.2,6.9-4.1,7.3l0.1-6C335.1,124.5,332.8,123.4,331.2,123.5z"/>
					<path class="st11" d="M399.9,123.5c0.3,0,0.5,0.1,0.8,0.1l0,0l0,0c4.7,0.9,8.2,5,8.4,10c0.1,5.8-4.4,10.6-10.2,10.7
						c-5.8,0.1-10.6-4.4-10.7-10.2c-0.1-3.3,1.4-6.4,3.8-8.3c-0.2,3.1,0.3,6.9,4.2,7.2l-0.2-6C396,124.6,398.2,123.5,399.9,123.5z"
						/>
				</g>
				<path class="st14" d="M365.6,175.8c19.5,0,35.7-24,35.7-43v-25.2c0-19.6-16.1-35.7-35.7-35.7l0,0c-19.6,0-35.7,16.1-35.7,35.7
					v24.7C329.9,153,344.1,175.8,365.6,175.8z"/>
				<g>
					<path class="st15" d="M346.3,137.8c3.1,0.1,5.6,2.6,5.6,5.8c-0.1,3.1-2.6,5.6-5.8,5.6c-3.1-0.1-5.6-2.6-5.6-5.8
						C340.5,140.3,343.1,137.8,346.3,137.8z"/>
					<path class="st15" d="M385.2,138.7c3.1,0.1,5.6,2.6,5.6,5.8c-0.1,3.1-2.6,5.6-5.8,5.6c-3.1-0.1-5.6-2.6-5.6-5.8
						C379.4,141.2,382,138.7,385.2,138.7z"/>
				</g>
				<path class="st8" d="M378.3,116.6c-0.6,0.3-0.9,1.1-0.6,1.7s1.1,0.9,1.7,0.6c0,0,3.9-1.8,7.6,0.5c0.6,0.4,1.4,0.2,1.8-0.4
					s0.2-1.4-0.4-1.8C383.4,114.1,378.3,116.6,378.3,116.6z"/>
				<path class="st8" d="M343,117.2c-0.6,0.3-0.8,1.1-0.5,1.7s1.1,0.8,1.7,0.5c0,0,3.7-2.1,7.6-0.1c0.6,0.3,1.4,0.1,1.7-0.5
					c0.3-0.6,0.1-1.4-0.5-1.7C347.9,114.3,343,117.1,343,117.2z"/>
				<path class="st16" d="M364.6,134.7c-0.7,1.8-1.8,5.1-1.7,5.6c0.1,0.8,4.1,1.5,5.1,0.5c0.7-0.7-0.2-3.6-0.9-5.6
					C366.1,132.5,365.5,132.3,364.6,134.7z"/>
				<g>
					<path class="st8" d="M358.1,149c0,4.1,3.4,7.5,7.5,7.5s7.5-3.4,7.5-7.5c0-0.8-0.6-1.4-1.4-1.4h-12.2
						C358.7,147.6,358.1,148.2,358.1,149z"/>
					<path class="st0" d="M371,147.6h-10.7v1.3c0,0.7,0.5,1.2,1.2,1.2h8.3c0.7,0,1.2-0.5,1.2-1.2V147.6z"/>
					<path class="st17" d="M360.2,154.2c1.4,1.4,3.3,2.3,5.4,2.3s4.1-0.9,5.4-2.3c-1.4-1.4-3.3-2.3-5.4-2.3
						C363.5,151.8,361.5,152.7,360.2,154.2z"/>
				</g>
				<path class="st8" d="M401.3,131.5c0,0-3.3-1.8-3.3-10.4c0-8.7,0.5-11.3-4.1-15.7c-4.6-4.4-4.7-8.6-4.7-8.6l13.5-6.1
					c0,0,6.7,3.5,6.6,9.9s-4.8,24.7-4.8,24.7S401.4,126.2,401.3,131.5z"/>
				<path class="st8" d="M329.9,131.5c0,0,3.3-1.8,3.3-10.4c0-8.7-0.5-11.3,4.1-15.7c4.6-4.4,4.7-8.6,4.7-8.6l-13.5-6.1
					c0,0-6.7,3.5-6.6,9.9s4.8,24.7,4.8,24.7S329.9,126.2,329.9,131.5z"/>
				<path class="st13" d="M346.3,174.7c0,0-1.7-0.3-2.3,0c-0.6,0.3-2.6,7.4-3.8,9.1c0,0-1.1,1.4-0.3,3.8
					c0.8,2.4,11.5,21.9,11.5,21.9s0.8,1,2,0s10.5-13.5,10.5-13.5l-17.6-16.2L346.3,174.7L346.3,174.7z"/>
				<path class="st13" d="M385.5,174.5c0,0,1.7-0.3,2.3,0c0.6,0.3,2.6,7.6,3.8,9.3c0,0,1.1,1.4,0.3,3.8
					c-0.8,2.4-11.5,21.9-11.5,21.9s-0.8,1-2,0S367.9,196,367.9,196l17.6-16.2V174.5L385.5,174.5z"/>
				<path class="st8" d="M386.3,248.5L386.3,248.5L386.3,248.5h-0.1l0,0l0,0l0,0l0,0l0,0h-0.1l0,0H386l0,0h-0.1l0,0h-0.1l0,0h-0.1
					l0,0h-0.1l0,0l0,0h-0.1l0,0l0,0l0,0l0,0l0,0l0,0h-0.1l0,0l0,0l0,0l0,0l0,0l0,0l0,0l0,0l0,0l0,0l0,0l0,0l0,0l0,0h-0.1l0,0h-0.1
					l0,0h-0.1l0,0H385l0,0l0,0l0,0l0,0l0,0l0,0l0,0l0,0l0,0l0,0l0,0l0,0l0,0l0,0l0,0l0,0l0,0l0,0l0,0l0,0l0,0l0,0l0,0l0,0l0,0l0,0
					l0,0l0,0l0,0l0,0l0,0l0,0l0,0l0,0l0,0l0,0l0,0l0,0l0,0l0,0l0,0l0,0l0,0l0,0l0,0l0,0l0,0l0,0l0,0l0,0l0,0l0,0l0,0l0,0l0,0l0,0
					l0,0l0,0l0,0l0,0l0,0l0,0l0,0l0,0l0,0l0,0l0,0l0,0l0,0l0,0c-0.9-0.9-1.5-2.1-1.5-3.5v-10.4h1.1v-6.5c0-3.9,1.6-7.6,4.3-10.4
					c2.8-2.8,6.5-4.3,10.3-4.3c3.9,0,7.6,1.6,10.3,4.3c2.8,2.8,4.3,6.5,4.3,10.4v6.5h1.1V245c0,1.4-0.6,2.6-1.5,3.5l0,0l0,0l0,0l0,0
					l0,0l0,0l0,0l0,0l0,0l0,0l0,0l0,0l0,0l0,0l0,0l0,0l0,0l0,0l0,0l0,0l0,0l0,0l0,0l0,0l0,0l0,0l0,0l0,0l0,0l0,0l0,0l0,0l0,0l0,0
					l0,0l0,0l0,0l0,0l0,0l0,0l0,0l0,0l0,0l0,0l0,0l0,0l0,0l0,0l0,0l0,0l0,0l0,0l0,0l0,0l0,0l0,0l0,0l0,0l0,0l0,0l0,0l0,0l0,0l0,0
					l0,0l0,0l0,0l0,0l0,0l0,0l0,0l0,0h-0.1l0,0h-0.1l0,0l0,0l0,0l0,0l0,0l0,0l0,0l0,0l0,0l0,0l0,0l0,0l0,0l0,0l0,0l0,0l0,0l0,0l0,0
					l0,0l0,0l0,0l0,0l0,0l0,0l0,0l0,0l0,0l0,0l0,0h-0.1l0,0H413l0,0h-0.1l0,0h-0.1l0,0h-0.1l0,0h-0.1l0,0l0,0l0,0l0,0l0,0l0,0l0,0
					l0,0v-1c0-1-0.8-1.8-1.8-1.8l0,0c-1,0-1.8,0.8-1.8,1.8v3.8c0,1,0.8,1.8,1.8,1.8l0,0c1,0,1.8-0.8,1.8-1.8v-1l0,0l0,0l0,0l0,0l0,0
					l0,0l0,0l0,0h0.1l0,0h0.1l0,0h0.1l0,0h0.1l0,0h0.1l0,0h0.1l0,0h0.1l0,0h0.1l0,0h0.1h0.1l0,0h0.1l0,0h0.1l0,0h0.1l0,0h0.1l0,0
					h0.1l0,0h0.1l0,0h0.1l0,0h0.1l0,0l0,0l0,0l0,0l0,0l0,0l0,0l0,0l0,0l0,0l0,0l0,0l0,0l0,0l0,0l0,0h0.1l0,0h0.1l0,0h0.1l0,0h0.1
					l0,0h0.1l0,0h0.1l0,0h0.1l0,0h0.1l0,0h0.1l0,0h0.1l0,0h0.1l0,0h0.1l0,0h0.1l0,0h0.1l0,0h0.1l0,0l0,0l0,0l0,0l0,0l0,0l0,0l0,0
					l0,0l0,0l0,0l0,0l0,0l0,0l0,0l0,0l0,0l0,0l0,0l0,0l0,0l0,0l0,0l0,0l0,0l0,0l0,0l0,0l0,0l0,0l0,0l0,0h0.1l0,0l0.1-0.1l0,0
					l0.1-0.1c1.2-1.2,2-2.9,2-4.7V235h1.1v-6.5c0-4.9-2-9.7-5.5-13.2c-2.9-2.9-6.7-4.8-10.8-5.3v-6h-4.4v6
					c-4.2,0.5-8.1,2.3-11.1,5.4c-3.5,3.5-5.5,8.2-5.5,13.2v6.5h1.1v10.4c0,1.8,0.8,3.5,2,4.7l0.1,0.1l0,0l0.1,0.1l0,0h0.1l0,0h0.1
					l0,0l0,0l0,0l0,0l0,0l0,0l0,0l0,0l0,0l0,0l0,0l0,0l0,0l0,0l0,0l0,0l0,0l0,0l0,0l0,0l0,0l0,0l0,0l0,0l0,0l0,0l0,0l0,0l0,0l0,0
					h0.1l0,0h0.1l0,0h0.1l0,0h0.1l0,0h0.1l0,0h0.1l0,0h0.1l0,0h0.1l0,0h0.1l0,0h0.1l0,0h0.1l0,0h0.1l0,0h0.1l0,0h0.1l0,0l0,0l0,0
					l0,0l0,0l0,0l0,0l0,0l0,0l0,0l0,0l0,0l0,0l0,0l0,0l0,0l0,0l0,0h0.1l0,0h0.1l0,0h0.1l0,0h0.1l0,0h0.1l0,0h0.1l0,0h0.1l0,0h0.1
					l0,0h0.1h0.1l0,0h0.1l0,0h0.1l0,0h0.1l0,0h0.1l0,0h0.1l0,0h0.1l0,0h0.1l0,0h0.1l0,0h0.1l0,0l0,0l0,0l0,0l0,0l0,0v1
					c0,1,0.8,1.8,1.8,1.8l0,0c1,0,1.8-0.8,1.8-1.8v-3.8c0-1-0.8-1.8-1.8-1.8l0,0c-1,0-1.8,0.8-1.8,1.8v0.9L386.3,248.5L386.3,248.5z
					"/>
				<path class="st8" d="M396.4,209.5c0,0.6,0.5,1,1,1c0.6,0,1-0.5,1-1V191c0-5.3-2.2-10.1-5.6-13.5c-2-2-4.5-3.6-7.3-4.6v2.2
					c2.2,0.9,4.2,2.2,5.9,3.9c3.1,3.1,5,7.4,5,12.1V209.5z"/>
				<path class="st8" d="M335.4,236.4c0,0.6-0.5,1-1,1c-0.6,0-1-0.5-1-1V191c0-5.3,2.2-10.1,5.6-13.5c2-2,4.5-3.6,7.3-4.6v2.2
					c-2.2,0.9-4.2,2.2-5.9,3.9c-3.1,3.1-5,7.4-5,12.1V236.4z"/>
				<path class="st8" d="M334.5,241.5c2.7,0,4.9-2.2,4.9-4.9s-2.2-4.9-4.9-4.9c-2.7,0-4.9,2.2-4.9,4.9
					C329.6,239.4,331.8,241.5,334.5,241.5z"/>
				<path class="st12" d="M305.4,193.4c0,0-16.8,5.1-22.2,25.6c-5.4,20.5-17.1,90.9-17.1,90.9s-1.9,12.2,3,23.7
					c4.9,11.6,13.3,43.5,13.3,43.5h41.1l-20.3-57c0,0,0.1-7.3-2.5-10.7l10.8-43.8C311.5,265.7,323.8,229.8,305.4,193.4z"/>
				<path class="st12" d="M425.8,193.4c0,0,16.8,5.1,22.4,25.6s18.7,94.6,18.7,94.6s2,12.2-2.7,23.7c-4.8,11.6-13.6,39.8-13.6,39.8
					h-41.1L430,324c0,0-0.2-7.3,2.4-10.7l-11.9-47.6C420.4,265.7,407.8,229.8,425.8,193.4z"/>
				<path class="st8" d="M388.4,129.8c0,0.7-0.6,1.3-1.3,1.3s-1.3-0.6-1.3-1.3s-0.3-1.4-0.8-1.9l-0.1-0.1c-0.5-0.4-1.1-0.7-1.8-0.7
					c-0.7,0-1.4,0.3-1.9,0.8l0,0c-0.5,0.5-0.8,1.1-0.8,1.9c0,0.7-0.6,1.3-1.3,1.3c-0.7,0-1.3-0.6-1.3-1.3c0-1.5,0.6-2.8,1.5-3.7l0,0
					c1-1,2.3-1.5,3.7-1.5c1.4,0,2.7,0.6,3.7,1.5l0.1,0.1C387.8,127,388.4,128.3,388.4,129.8z"/>
				<path class="st8" d="M353.4,129.8c0,0.7-0.6,1.3-1.3,1.3c-0.7,0-1.3-0.6-1.3-1.3s-0.3-1.4-0.8-1.9l-0.1-0.1
					c-0.5-0.4-1.1-0.7-1.8-0.7c-0.7,0-1.4,0.3-1.9,0.8l0,0c-0.5,0.5-0.8,1.1-0.8,1.9c0,0.7-0.6,1.3-1.3,1.3c-0.7,0-1.3-0.6-1.3-1.3
					c0-1.5,0.6-2.8,1.5-3.7l0,0c1-1,2.3-1.5,3.7-1.5c1.4,0,2.7,0.6,3.7,1.5l0.1,0.1C352.8,127,353.4,128.3,353.4,129.8z"/>
				<path class="st13" d="M424.8,281c0,0.8-0.5,1.4-1.1,1.4s-1.1-0.7-1.1-1.5c0-0.2,3.3-52.7,7.6-66.6c0.2-0.7,0.9-1.1,1.4-0.8
					c0.6,0.3,0.8,1.1,0.6,1.9C428.1,228.7,424.8,280.8,424.8,281L424.8,281z M309.2,280.7c0,0.8-0.4,1.5-1,1.5s-1.1-0.6-1.2-1.4
					c0-0.2-4.2-50.4-8.1-65.3c-0.2-0.8,0.1-1.6,0.7-1.8c0.6-0.3,1.2,0.1,1.4,0.9C305,229.9,309.2,280.5,309.2,280.7z"/>
				<path class="st0" d="M355.4,219.5c1,0,1.9-0.9,1.9-1.9s-0.9-1.9-1.9-1.9s-1.9,0.9-1.9,1.9C353.5,218.7,354.4,219.5,355.4,219.5z
					"/>
				<path class="st0" d="M355.4,241c1,0,1.9-0.9,1.9-1.9s-0.9-1.9-1.9-1.9s-1.9,0.9-1.9,1.9S354.4,241,355.4,241z"/>
				<path class="st13" d="M322.2,250.9h23.4c1.3,0,2.3,1.1,2.3,2.3v22.2c0,5.9-4.8,10.7-10.7,10.7h-6.7c-5.9,0-10.7-4.8-10.7-10.7
					v-22.2C319.9,252,320.9,250.9,322.2,250.9z"/>
				<path class="st8" d="M397,102.1c0,0,3.5-10.9,8.6-6.4c0,0,2-25.2-17.8-25.5c6.8-12.7-10.3-14.1-24.4-5.9
					c-15.7-22.9-52.5,3.3-38.8,30.3c11.3,22.2,9.5,5.2,9.5,5.2s9.4,9.3,22.9-2c0,6.8,6.9,7.6,7.9,0.5
					C364.8,98.4,379.6,112.7,397,102.1z"/>
				<path class="st13" d="M308.4,326.4c0.1-0.6,0.7-1,1.3-0.9c0.6,0.1,1,0.7,0.9,1.3c-1.2,6.5-2.4,11.4-3.4,15.5
					c-1.8,7.2-2.8,11.7-2.4,17.7c0.7,9.7-1,17.8-1,17.8c-0.1,0.6-0.7,1-1.3,0.9c-0.6-0.1-1-0.7-0.9-1.3c0,0,1.6-7.8,0.9-17.2
					c-0.5-6.3,0.7-10.9,2.5-18.3C305.9,337.7,307.1,332.8,308.4,326.4z"/>
				<path class="st13" d="M420.6,326.8c-0.1-0.6,0.3-1.2,0.9-1.3c0.6-0.1,1.2,0.3,1.3,0.9c1.3,6.5,2.4,11.4,3.4,15.4
					c1.8,7.4,2.9,12,2.5,18.3c-0.7,9.4,0.9,17.2,0.9,17.2c0.1,0.6-0.3,1.2-0.9,1.3c-0.6,0.1-1.2-0.3-1.3-0.9c0,0-1.7-8.1-1-17.8
					c0.4-6-0.6-10.5-2.4-17.7C423,338.2,421.8,333.3,420.6,326.8z"/>
			</g>
		</g>
		<path class="st18" d="M76.4,423.6h597.2c4.9,0,8.9,4,8.9,8.9l0,0c0,4.9-4,8.9-8.9,8.9h-29.9c-2.7,0-4.9,2.2-4.9,4.9l0,0
			c0,2.7,2.2,4.9,4.9,4.9h10.9c3.4,0,6.2,2.8,6.2,6.2l0,0c0,3.4-2.8,6.2-6.2,6.2H96.3c-3.4,0-6.2-2.8-6.2-6.2l0,0
			c0-3.4,2.8-6.2,6.2-6.2h8.6c2.7,0,4.9-2.2,4.9-4.9l0,0c0-2.7-2.2-4.9-4.9-4.9H76.4c-4.9,0-8.9-4-8.9-8.9l0,0
			C67.5,427.6,71.5,423.6,76.4,423.6L76.4,423.6z M81,463.5c3.2,0,5.9-2.7,5.9-5.9v-0.5c0-3.3-2.7-5.9-5.9-5.9l0,0
			c-3.3,0-5.9,2.7-5.9,5.9v0.5C75.1,460.8,77.8,463.5,81,463.5L81,463.5z"/>
		<path class="st13" d="M119.8,423.9h499c3.3,0,6,2.7,6,6l0,0c0,3.3-2.7,6-6,6h-499c-3.3,0-6-2.7-6-6l0,0
			C113.8,426.6,116.5,423.9,119.8,423.9z"/>
	</g>
</g>
</svg>
