<?xml version="1.0" encoding="utf-8"?>
<!-- Generator: Adobe Illustrator 24.3.0, SVG Export Plug-In . SVG Version: 6.00 Build 0)  -->
<svg version="1.1" id="Layer_1" xmlns:xodm="http://www.corel.com/coreldraw/odm/2003"
	 xmlns="http://www.w3.org/2000/svg" xmlns:xlink="http://www.w3.org/1999/xlink" x="0px" y="0px" viewBox="0 0 144.6 40"
	 style="enable-background:new 0 0 144.6 40;" xml:space="preserve">
<style type="text/css">
	.st0{fill:#E4EA8E;}
	.st1{font-family:'Roboto-Black';}
	.st2{font-size:21.8954px;}
	.st3{fill:#FFFFFF;}
	.st4{font-family:'Roboto-Bold';}
	.st5{font-size:17.2654px;}
</style>
<g>
	<g>
		<text transform="matrix(1 0 0 1 44.6929 18.6958)" class="st0 st1 st2">Micro</text>
	</g>
	<g>
		<text transform="matrix(1 0 0 1 44.6934 34.5156)" class="st3 st4 st5">Technology</text>
	</g>
</g>
<g>
	<g>
		<path class="st0" d="M38,25.2c-1.2,0-2.2-0.1-2.9-0.3c-2.1-0.6-2.8-1.5-2.8-1.5c-0.1-0.2-0.4-0.3-0.7-0.3c-0.3,0-0.5,0.2-0.6,0.5
			c0,0-1,2.9-3.5,4.2c-2.6,1.3-7.3,1-7.4,1c-0.3,0-0.5,0.1-0.6,0.3c-0.1,0.2-0.2,0.5-0.1,0.7l3.6,8.2c0.1,0.3,0.4,0.4,0.6,0.4
			c0,0,0.1,0,0.1,0c6.8-1.1,12.4-5.8,14.8-12.2c0.1-0.2,0-0.5-0.1-0.6C38.4,25.3,38.2,25.2,38,25.2z"/>
		<path class="st0" d="M20.8,0.6c-10.5,0-19,8.5-19,19c0,8.3,5.5,15.8,13.5,18.2c0.1,0,0.1,0,0.2,0c0.2,0,0.4-0.1,0.5-0.2
			c0.2-0.2,0.2-0.5,0.1-0.7C8.7,18,7.3,13.6,7.1,12.6c1-0.5,4.4-1.3,5.3-1.1c0.3,0.4,0.8,1.7,1.3,2.9c1.8,4.5,4.6,11.3,8.5,11.6
			c2.7,0.2,5.2-0.8,6.6-2.8c0.9-1.2,1.1-2.5,0.8-3.5c-0.6-1.5-3.3-7.6-4.2-9.8l4.2-1.1c0.9,2.2,4.3,10,5.9,11.9
			c0.7,0.8,1.9,1.3,3.5,1.5c0.4,0,0.7-0.2,0.8-0.6c0.1-0.7,0.1-1.4,0.1-2C39.8,9.1,31.3,0.6,20.8,0.6z"/>
	</g>
</g>
</svg>
