<?xml version="1.0" encoding="utf-8"?>
<!-- Generator: Adobe Illustrator 24.3.0, SVG Export Plug-In . SVG Version: 6.00 Build 0)  -->
<svg version="1.1" id="Layer_1" xmlns:xodm="http://www.corel.com/coreldraw/odm/2003"
	 xmlns="http://www.w3.org/2000/svg" xmlns:xlink="http://www.w3.org/1999/xlink" x="0px" y="0px" viewBox="0 0 144.6 40"
	 style="enable-background:new 0 0 144.6 40;" xml:space="preserve">
<style type="text/css">
	.st0{fill:#1698B9;}
	.st1{fill:#094F7C;}
</style>
<g>
	<path class="st0" d="M53.4,12.9h2.5l3,5.8h3.5l0,0l-3.5-6.5c1-0.5,1.8-1,2.2-1.8c0.5-0.8,0.8-1.8,0.8-2.8c0-1.5-0.5-2.8-1.5-3.5
		c-1-0.8-2.5-1.2-4.3-1.2h-6v16h3.2C53.4,18.9,53.4,12.9,53.4,12.9z M53.4,5.4h2.8c1,0,1.5,0.2,2,0.7c0.2,0.5,0.5,1,0.5,1.8
		s-0.2,1.2-0.7,1.7c-0.5,0.5-1,0.8-2,0.8h-2.8v-5H53.4z"/>
	<path class="st0" d="M72.4,18.4c0.7-0.5,1.5-1,2-1.5l-1.5-1.8c-0.7,1-1.8,1.2-2.8,1.2c-0.8,0-1.5-0.2-2-0.8s-0.7-1-1-1.8h7.5v-1.3
		c0-2-0.5-3.2-1.5-4.2c-1-1-2.2-1.5-3.8-1.5c-1,0-2,0.2-3,0.8c-0.8,0.5-1.5,1.2-2,2.2s-0.7,2-0.7,3.2v0.2c0,1.8,0.5,3.2,1.8,4.2
		c1,1,2.5,1.5,4.2,1.5C70.7,19.2,71.7,18.9,72.4,18.4z M67.9,9.9c0.5-0.5,1-0.8,1.5-0.8c0.8,0,1.2,0.2,1.5,0.5
		c0.2,0.5,0.5,1.2,0.5,1.8v0.2h-4.5C67.2,10.9,67.4,10.4,67.9,9.9z"/>
	<polygon class="st0" points="82.2,18.9 86.2,6.9 82.9,6.9 80.7,14.9 78.4,6.9 75.2,6.9 79.2,18.9 	"/>
	<path class="st0" d="M97.7,16.9l-1.5-1.8c-0.8,1-1.8,1.2-2.8,1.2c-0.8,0-1.5-0.2-2-0.8c-0.5-0.5-0.7-1-1-1.8h7.5v-1.3
		c0-2-0.5-3.2-1.5-4.2s-2.2-1.5-3.8-1.5c-1,0-2,0.2-3,0.8c-0.8,0.5-1.5,1.2-2,2.2c-0.5,1-0.7,2-0.7,3.2v0.2c0,1.8,0.5,3.2,1.8,4.2
		c1,1,2.5,1.5,4.2,1.5c1,0,2-0.2,2.8-0.5C96.4,18.2,97.2,17.7,97.7,16.9z M91.2,9.9c0.5-0.5,1-0.8,1.5-0.8c0.8,0,1.2,0.2,1.5,0.5
		c0.2,0.5,0.5,1,0.5,1.8v0.2h-4.5C90.4,10.9,90.7,10.4,91.2,9.9z"/>
	<path class="st0" d="M106.2,6.7c-1.5,0-2.5,0.5-3.5,1.5V6.9h-3v12h3.2v-8.5c0.5-0.8,1-1.2,2-1.2c0.8,0,1.2,0.2,1.5,0.5
		c0.2,0.2,0.5,0.8,0.5,1.5v7.5h3.2v-7.5c0-1.5-0.2-2.5-1-3.2S107.4,6.7,106.2,6.7z"/>
	<path class="st0" d="M116.2,19.2c1.5,0,2.5-0.5,3.2-1.5v1.2h3v-12h-3.2v8.5c-0.5,0.8-1.2,1-2.3,1c-1.2,0-1.8-0.5-1.8-1.7V6.9h-3.2
		v7.7c0,1.5,0.2,2.5,1,3.3C113.9,18.7,114.9,19.2,116.2,19.2z"/>
	<path class="st0" d="M129.9,6.7c-1,0-2,0.2-3,0.7c-0.7,0.5-1.5,1.2-2,2.2c-0.5,1-0.8,2-0.8,3.3v0.2c0,1.7,0.5,3.2,1.8,4.2
		c1,1,2.5,1.5,4.2,1.5c1,0,2-0.2,2.8-0.5c0.8-0.5,1.5-1,2-1.5l-1.5-1.7c-0.8,1-1.8,1.3-2.8,1.3c-0.8,0-1.5-0.2-2-0.8
		c-0.5-0.5-0.7-1-1-1.8h7.5v-1.3c0-2-0.5-3.2-1.5-4.2C132.9,7.2,131.7,6.7,129.9,6.7z M132.2,11.7h-4.5c0-0.8,0.2-1.5,0.8-1.8
		c0.5-0.5,1-0.8,1.5-0.8c0.8,0,1.2,0.2,1.5,0.5c0.2,0.5,0.5,1,0.5,1.8v0.2H132.2z"/>
	<polygon class="st1" points="57.4,33.9 53.4,22.9 50.2,22.9 50.2,37.2 52.7,37.2 52.7,32.4 52.4,26.2 56.4,37.2 58.2,37.2 
		62.4,26.2 62.2,32.4 62.2,37.2 64.7,37.2 64.7,22.9 61.4,22.9 	"/>
	<path class="st1" d="M75.7,29.9c0-1.2-0.5-2-1.2-2.5c-0.7-0.5-1.8-1-3-1c-0.8,0-1.5,0.2-2.2,0.5c-0.7,0.3-1.2,0.8-1.5,1.2
		c-0.5,0.5-0.5,1-0.5,1.8h2.2c0-0.5,0.2-0.8,0.5-1c0.2-0.3,0.8-0.5,1.2-0.5c0.8,0,1,0.2,1.5,0.5c0.2,0.2,0.5,0.8,0.5,1.2v0.8h-1.5
		c-1.5,0-2.8,0.2-3.5,1c-0.7,0.5-1.2,1.5-1.2,2.5s0.3,1.8,1,2.2c0.8,0.5,1.5,1,2.5,1s2-0.5,2.8-1.2c0,0.5,0.3,0.8,0.3,1h2.5v-0.2
		c-0.3-0.5-0.5-1.2-0.5-2.2v-5H75.7z M73.4,34.2c-0.3,0.5-0.5,0.8-1,1c-0.5,0.2-0.8,0.2-1.2,0.2c-0.5,0-1-0.2-1.2-0.5
		s-0.5-0.8-0.5-1c0-0.5,0.3-1,0.8-1.2c0.5-0.2,1-0.5,2-0.5h1.2C73.4,32.2,73.4,34.2,73.4,34.2z"/>
	<polygon class="st1" points="86.7,26.7 83.9,26.7 81.9,30.2 79.9,26.7 77.4,26.7 80.7,31.7 77.2,37.2 79.9,37.2 81.9,33.4 
		84.2,37.2 86.7,37.2 83.4,31.7 	"/>
	<path class="st1" d="M89.7,22.7c-0.5,0-0.8,0-1,0.3c-0.2,0.2-0.2,0.5-0.2,1c0,0.3,0,0.8,0.2,1c0.2,0.2,0.5,0.2,1,0.2s0.8,0,1-0.2
		c0.2-0.3,0.2-0.5,0.2-1c0-0.2,0-0.8-0.2-1C90.4,22.7,89.9,22.7,89.7,22.7z"/>
	<rect x="88.4" y="26.7" class="st1" width="2.3" height="10.5"/>
	<path class="st1" d="M104.9,26.4c-1.5,0-2.5,0.5-3.2,1.5c-0.5-1-1.5-1.5-3-1.5c-1.2,0-2.3,0.5-3,1.2v-1h-2.2v10.5h2.2v-7.8
		c0.5-0.8,1-1.2,2-1.2c1.2,0,1.8,0.5,2,1.8v7h2.2v-7.2c0.2-0.5,0.5-0.8,0.8-1.2c0.2-0.3,0.8-0.5,1.2-0.5c0.8,0,1.2,0.2,1.5,0.5
		c0.2,0.2,0.5,0.8,0.5,1.5v7h2.2v-7c0-1.2-0.2-2.2-0.7-2.8C106.9,26.7,105.9,26.4,104.9,26.4z"/>
	<path class="st1" d="M112.2,22.7c-0.5,0-0.8,0-1,0.3c-0.2,0.2-0.2,0.5-0.2,1c0,0.3,0,0.8,0.2,1c0.2,0.2,0.5,0.2,1,0.2s0.8,0,1-0.2
		c0.2-0.3,0.2-0.5,0.2-1c0-0.2,0-0.8-0.2-1C112.9,22.7,112.4,22.7,112.2,22.7z"/>
	<rect x="110.9" y="26.7" class="st1" width="2.3" height="10.5"/>
	<polygon class="st1" points="123.9,28.2 123.9,26.7 115.7,26.7 115.7,28.4 120.9,28.4 115.4,35.7 115.4,37.2 123.9,37.2 
		123.9,35.2 118.4,35.2 	"/>
	<path class="st1" d="M130.2,26.4c-1,0-1.8,0.3-2.5,0.8c-0.8,0.5-1.2,1-1.8,2s-0.5,1.8-0.5,2.8v0.2c0,1.5,0.5,2.8,1.5,3.8
		c1,1,2.2,1.5,3.8,1.5c1,0,1.8-0.3,2.5-0.5c0.8-0.2,1.2-0.8,1.8-1.5l-1.2-1.2c-0.8,1-1.5,1.2-2.8,1.2c-0.7,0-1.5-0.3-2-0.8
		c-0.5-0.5-0.8-1.2-0.8-2h7v-1c0-1.8-0.5-3-1.2-4C133.2,26.7,131.7,26.4,130.2,26.4z M132.4,30.9h-4.5c0-0.8,0.2-1.5,0.8-2
		c0.5-0.5,1-0.8,1.5-0.8c0.7,0,1.2,0.3,1.5,0.5C132.2,29.4,132.2,29.9,132.4,30.9L132.4,30.9z"/>
	<path class="st1" d="M141.2,26.4c-1,0-1.8,0.5-2.5,1.5v-1.2h-2.2v10.5h2.2v-7.2c0.5-0.8,1-1.2,2.2-1.2c0.2,0,0.8,0,1,0v-2.2
		C141.9,26.4,141.7,26.4,141.2,26.4z"/>
</g>
<g id="Layer_x0020_1">
	<path class="st0" d="M6.3,8.2h14.8c1,0,2.1,0.2,3,0.6c1,0.4,1.8,1,2.5,1.7c0.7,0.7,1.3,1.6,1.7,2.5c0.4,0.9,0.6,1.9,0.6,3
		c0,1-0.2,2.1-0.6,3c-0.4,1-1,1.8-1.7,2.5s-1.6,1.3-2.5,1.7c-0.9,0.4-1.9,0.6-3,0.6h-2.8l8.5,14.7c1.3-0.4,2.6-1,3.8-1.7
		c1.4-0.8,2.6-1.8,3.7-2.9c3.4-3.4,5.6-8.2,5.6-13.4c0-2.6-0.5-5-1.4-7.3c-1-2.3-2.4-4.4-4.1-6.2s-3.8-3.2-6.2-4.1
		c-2.2-0.9-4.7-1.4-7.3-1.4c-2.6,0-5,0.5-7.3,1.4c-2.3,1-4.4,2.4-6.2,4.1C7.1,7.3,6.8,7.6,6.4,8C6.4,8,6.3,8.2,6.3,8.2z"/>
	<path class="st1" d="M16.2,20h5c0.5,0,1.1-0.1,1.5-0.3c0.5-0.2,0.9-0.5,1.3-0.9c0.4-0.4,0.7-0.8,0.9-1.3c0.2-0.5,0.3-1,0.3-1.5
		c0-0.5-0.1-1.1-0.3-1.5c-0.2-0.5-0.5-0.9-0.9-1.3c-0.4-0.4-0.8-0.7-1.3-0.9c-0.5-0.2-1-0.3-1.5-0.3H3.9c-0.6,1.2-1.1,2.5-1.4,3.9
		c-0.4,1.4-0.5,3-0.5,4.5c0,2.6,0.5,5,1.4,7.3c1,2.3,2.4,4.4,4.1,6.2c1.8,1.8,3.8,3.2,6.2,4.1c2.2,0.9,4.7,1.4,7.3,1.4
		c0.5,0,1,0,1.5-0.1l0.6-0.1L11.9,20l1.8,0v0L16.2,20C16.2,20,16.2,20,16.2,20z"/>
</g>
</svg>
